<svg xmlns="http://www.w3.org/2000/svg" viewBox="0 0 100 100">
  <!-- Back darker cloud -->
  <path d="M25 35
           C25 35, 20 35, 20 40
           C15 40, 10 45, 10 50
           C10 60, 20 65, 30 65
           L70 65
           C80 65, 90 60, 90 50
           C90 40, 80 35, 70 35
           C70 25, 60 20, 50 20
           C40 20, 30 25, 25 35Z" 
        fill="#515C6B"/>
        
  <!-- Front lighter cloud -->
  <path d="M20 40
           C20 40, 15 40, 15 45
           C10 45, 5 50, 5 55
           C5 65, 15 70, 25 70
           L65 70
           C75 70, 85 65, 85 55
           C85 45, 75 40, 65 40
           C65 30, 55 25, 45 25
           C35 25, 25 30, 20 40Z" 
        fill="#899AAB"/>
        
  <!-- Lightning bolt -->
  <path d="M45 50
           L55 50
           L50 60
           L58 60
           L40 75
           L45 60
           L37 60Z"
        fill="#FFD700"/>
</svg>
